ISO-10303-21;
HEADER;
FILE_DESCRIPTION((''),'2;1');
FILE_NAME('Top pc case', '2026-09-27T18:49:08', (''), (''), 'ImageToStl.com STEP Converter','', '');
FILE_SCHEMA(('AUTOMOTIVE_DESIGN_CC2'));
ENDSEC;
DATA;
#1=PRODUCT_DEFINITION_CONTEXT('',#4,'design');
#2=APPLICATION_PROTOCOL_DEFINITION('INTERNATIONAL STANDARD','automotive_design',1994,#4);
#3=(GEOMETRIC_REPRESENTATION_CONTEXT(3)GLOBAL_UNCERTAINTY_ASSIGNED_CONTEXT((#5))GLOBAL_UNIT_ASSIGNED_CONTEXT((#6,#7,#8))REPRESENTATION_CONTEXT('NONE','WORKSPACE'));
#4=APPLICATION_CONTEXT(' ');
#5=UNCERTAINTY_MEASURE_WITH_UNIT(LENGTH_MEASURE(1.0E-006),#6,'','');
#6=(CONVERSION_BASED_UNIT('METRE',#10)LENGTH_UNIT()NAMED_UNIT(#11));
#7=(NAMED_UNIT(#12)PLANE_ANGLE_UNIT()SI_UNIT($,.RADIAN.));
#8=(NAMED_UNIT(#12)SOLID_ANGLE_UNIT()SI_UNIT($,.STERADIAN.));
#9=AXIS2_PLACEMENT_3D('',#14,#15,#16);
#10=LENGTH_MEASURE_WITH_UNIT(LENGTH_MEASURE(1.0),#17);
#11=DIMENSIONAL_EXPONENTS(1.0,0.0,0.0,0.0,0.0,0.0,0.0);
#12=DIMENSIONAL_EXPONENTS(0.0,0.0,0.0,0.0,0.0,0.0,0.0);
#13=PRODUCT_CONTEXT('',#4,'mechanical');
#14=CARTESIAN_POINT('',(0.0,0.0,0.0));
#15=DIRECTION('',(0.0,0.0,1.0));
#16=DIRECTION('',(1.0,0.0,0.0));
#17=(NAMED_UNIT(#11)LENGTH_UNIT()SI_UNIT(.MILLI.,.METRE.));
#18=PRESENTATION_STYLE_ASSIGNMENT((#19));
#19=SURFACE_STYLE_USAGE(.BOTH.,#20);
#20=SURFACE_SIDE_STYLE('',(#21));
#21=SURFACE_STYLE_FILL_AREA(#22);
#22=FILL_AREA_STYLE('',(#23));
#23=FILL_AREA_STYLE_COLOUR('',#24);
#24=COLOUR_RGB('',0.9,0.9,0.9);
#25=SHAPE_DEFINITION_REPRESENTATION(#26,#27);
#26=PRODUCT_DEFINITION_SHAPE('productshape0','',#30);
#27=MANIFOLD_SURFACE_SHAPE_REPRESENTATION('',(#28,#9),#3);
#28=SHELL_BASED_SURFACE_MODEL('shell0',(#33));
#29=PRODUCT('product0','','',(#13));
#30=PRODUCT_DEFINITION('mesh0','',#31,#2);
#31=PRODUCT_DEFINITION_FORMATION_WITH_SPECIFIED_SOURCE('prodsource0','',#29,.NOT_KNOWN.);
#32=STYLED_ITEM('',(#18),#33);
#33=CLOSED_SHELL('',(#66,#88,#110,#132,#154,#176,#198,#220,#242,#264,#286,#308,#330,#352,#374,#396,#418,#440,#462,#484,#506,#528,#550,#572,#594,#616,#638,#660));
#34=CARTESIAN_POINT('',(72,128,3));
#35=VERTEX_POINT('',#34);
#36=CARTESIAN_POINT('',(72,128,1.9539925233402755E-14));
#37=VERTEX_POINT('',#36);
#38=CARTESIAN_POINT('',(-54,128,1.9539925233402755E-14));
#39=VERTEX_POINT('',#38);
#40=CARTESIAN_POINT('',(-54,128,3));
#41=VERTEX_POINT('',#40);
#42=CARTESIAN_POINT('',(-54,-128,1.9539925233402755E-14));
#43=VERTEX_POINT('',#42);
#44=CARTESIAN_POINT('',(-54,-128,3));
#45=VERTEX_POINT('',#44);
#46=CARTESIAN_POINT('',(67,-123,6));
#47=VERTEX_POINT('',#46);
#48=CARTESIAN_POINT('',(67,-123,3));
#49=VERTEX_POINT('',#48);
#50=CARTESIAN_POINT('',(67,123,3));
#51=VERTEX_POINT('',#50);
#52=CARTESIAN_POINT('',(67,123,6));
#53=VERTEX_POINT('',#52);
#54=CARTESIAN_POINT('',(-49,-123,3));
#55=VERTEX_POINT('',#54);
#56=CARTESIAN_POINT('',(72,-128,3));
#57=VERTEX_POINT('',#56);
#58=CARTESIAN_POINT('',(-49,123,3));
#59=VERTEX_POINT('',#58);
#60=CARTESIAN_POINT('',(-49,-123,6));
#61=VERTEX_POINT('',#60);
#62=CARTESIAN_POINT('',(-49,123,6));
#63=VERTEX_POINT('',#62);
#64=CARTESIAN_POINT('',(72,-128,1.9539925233402755E-14));
#65=VERTEX_POINT('',#64);
#66=FACE_SURFACE('',(#71),#67,.T.);
#67=PLANE('',#68);
#68=AXIS2_PLACEMENT_3D('',#34,#69,#70);
#69=DIRECTION('',(0,1,0));
#70=DIRECTION('',(0,0,-1));
#71=FACE_BOUND('',#72,.T.);
#72=EDGE_LOOP('',(#73,#74,#75));
#73=ORIENTED_EDGE('',*,*,#76,.T.);
#74=ORIENTED_EDGE('',*,*,#77,.T.);
#75=ORIENTED_EDGE('',*,*,#78,.T.);
#76=EDGE_CURVE('',#35,#37,#79,.F.);
#77=EDGE_CURVE('',#37,#39,#80,.T.);
#78=EDGE_CURVE('',#39,#35,#81,.T.);
#79=LINE('',#34,#82);
#80=LINE('',#36,#83);
#81=LINE('',#38,#84);
#82=VECTOR('',#85,1.0);
#83=VECTOR('',#86,1.0);
#84=VECTOR('',#87,1.0);
#85=DIRECTION('',(0,0,-1));
#86=DIRECTION('',(-1,0,0));
#87=DIRECTION('',(0.9997166737441362,0,0.0238027779462888));
#88=FACE_SURFACE('',(#93),#89,.T.);
#89=PLANE('',#90);
#90=AXIS2_PLACEMENT_3D('',#34,#91,#92);
#91=DIRECTION('',(0,1,0));
#92=DIRECTION('',(-0.9997166737441362,0,-0.0238027779462888));
#93=FACE_BOUND('',#94,.T.);
#94=EDGE_LOOP('',(#95,#96,#97));
#95=ORIENTED_EDGE('',*,*,#98,.T.);
#96=ORIENTED_EDGE('',*,*,#99,.T.);
#97=ORIENTED_EDGE('',*,*,#100,.T.);
#98=EDGE_CURVE('',#35,#39,#101,.F.);
#99=EDGE_CURVE('',#39,#41,#102,.T.);
#100=EDGE_CURVE('',#41,#35,#103,.T.);
#101=LINE('',#34,#104);
#102=LINE('',#38,#105);
#103=LINE('',#40,#106);
#104=VECTOR('',#107,1.0);
#105=VECTOR('',#108,1.0);
#106=VECTOR('',#109,1.0);
#107=DIRECTION('',(-0.9997166737441362,0,-0.0238027779462888));
#108=DIRECTION('',(0,0,1));
#109=DIRECTION('',(1,0,0));
#110=FACE_SURFACE('',(#115),#111,.T.);
#111=PLANE('',#112);
#112=AXIS2_PLACEMENT_3D('',#40,#113,#114);
#113=DIRECTION('',(-1,0,-0));
#114=DIRECTION('',(0,0,-1));
#115=FACE_BOUND('',#116,.T.);
#116=EDGE_LOOP('',(#117,#118,#119));
#117=ORIENTED_EDGE('',*,*,#120,.T.);
#118=ORIENTED_EDGE('',*,*,#121,.T.);
#119=ORIENTED_EDGE('',*,*,#122,.T.);
#120=EDGE_CURVE('',#41,#39,#123,.F.);
#121=EDGE_CURVE('',#39,#43,#124,.T.);
#122=EDGE_CURVE('',#43,#41,#125,.T.);
#123=LINE('',#40,#126);
#124=LINE('',#38,#127);
#125=LINE('',#42,#128);
#126=VECTOR('',#129,1.0);
#127=VECTOR('',#130,1.0);
#128=VECTOR('',#131,1.0);
#129=DIRECTION('',(0,0,-1));
#130=DIRECTION('',(0,-1,0));
#131=DIRECTION('',(0,0.9999313425206403,0.011717945420163677));
#132=FACE_SURFACE('',(#137),#133,.T.);
#133=PLANE('',#134);
#134=AXIS2_PLACEMENT_3D('',#40,#135,#136);
#135=DIRECTION('',(-1,-0,0));
#136=DIRECTION('',(0,-0.9999313425206403,-0.011717945420163677));
#137=FACE_BOUND('',#138,.T.);
#138=EDGE_LOOP('',(#139,#140,#141));
#139=ORIENTED_EDGE('',*,*,#142,.T.);
#140=ORIENTED_EDGE('',*,*,#143,.T.);
#141=ORIENTED_EDGE('',*,*,#144,.T.);
#142=EDGE_CURVE('',#41,#43,#145,.F.);
#143=EDGE_CURVE('',#43,#45,#146,.T.);
#144=EDGE_CURVE('',#45,#41,#147,.T.);
#145=LINE('',#40,#148);
#146=LINE('',#42,#149);
#147=LINE('',#44,#150);
#148=VECTOR('',#151,1.0);
#149=VECTOR('',#152,1.0);
#150=VECTOR('',#153,1.0);
#151=DIRECTION('',(0,-0.9999313425206403,-0.011717945420163677));
#152=DIRECTION('',(0,0,1));
#153=DIRECTION('',(0,1,0));
#154=FACE_SURFACE('',(#159),#155,.T.);
#155=PLANE('',#156);
#156=AXIS2_PLACEMENT_3D('',#46,#157,#158);
#157=DIRECTION('',(1,0,0));
#158=DIRECTION('',(0,0,-1));
#159=FACE_BOUND('',#160,.T.);
#160=EDGE_LOOP('',(#161,#162,#163));
#161=ORIENTED_EDGE('',*,*,#164,.T.);
#162=ORIENTED_EDGE('',*,*,#165,.T.);
#163=ORIENTED_EDGE('',*,*,#166,.T.);
#164=EDGE_CURVE('',#47,#49,#167,.F.);
#165=EDGE_CURVE('',#49,#51,#168,.T.);
#166=EDGE_CURVE('',#51,#47,#169,.T.);
#167=LINE('',#46,#170);
#168=LINE('',#48,#171);
#169=LINE('',#50,#172);
#170=VECTOR('',#173,1.0);
#171=VECTOR('',#174,1.0);
#172=VECTOR('',#175,1.0);
#173=DIRECTION('',(0,0,-1));
#174=DIRECTION('',(0,1,0));
#175=DIRECTION('',(0,-0.9999256477934956,0.012194215216993848));
#176=FACE_SURFACE('',(#181),#177,.T.);
#177=PLANE('',#178);
#178=AXIS2_PLACEMENT_3D('',#46,#179,#180);
#179=DIRECTION('',(1,-0,0));
#180=DIRECTION('',(0,0.9999256477934956,-0.012194215216993848));
#181=FACE_BOUND('',#182,.T.);
#182=EDGE_LOOP('',(#183,#184,#185));
#183=ORIENTED_EDGE('',*,*,#186,.T.);
#184=ORIENTED_EDGE('',*,*,#187,.T.);
#185=ORIENTED_EDGE('',*,*,#188,.T.);
#186=EDGE_CURVE('',#47,#51,#189,.F.);
#187=EDGE_CURVE('',#51,#53,#190,.T.);
#188=EDGE_CURVE('',#53,#47,#191,.T.);
#189=LINE('',#46,#192);
#190=LINE('',#50,#193);
#191=LINE('',#52,#194);
#192=VECTOR('',#195,1.0);
#193=VECTOR('',#196,1.0);
#194=VECTOR('',#197,1.0);
#195=DIRECTION('',(0,0.9999256477934956,-0.012194215216993848));
#196=DIRECTION('',(0,0,1));
#197=DIRECTION('',(0,-1,0));
#198=FACE_SURFACE('',(#203),#199,.T.);
#199=PLANE('',#200);
#200=AXIS2_PLACEMENT_3D('',#48,#201,#202);
#201=DIRECTION('',(0,0,1));
#202=DIRECTION('',(-1,0,0));
#203=FACE_BOUND('',#204,.T.);
#204=EDGE_LOOP('',(#205,#206,#207));
#205=ORIENTED_EDGE('',*,*,#208,.T.);
#206=ORIENTED_EDGE('',*,*,#209,.T.);
#207=ORIENTED_EDGE('',*,*,#210,.T.);
#208=EDGE_CURVE('',#49,#55,#211,.F.);
#209=EDGE_CURVE('',#55,#57,#212,.T.);
#210=EDGE_CURVE('',#57,#49,#213,.T.);
#211=LINE('',#48,#214);
#212=LINE('',#54,#215);
#213=LINE('',#56,#216);
#214=VECTOR('',#217,1.0);
#215=VECTOR('',#218,1.0);
#216=VECTOR('',#219,1.0);
#217=DIRECTION('',(-1,0,0));
#218=DIRECTION('',(0.9991473250039724,-0.04128707954561869,0));
#219=DIRECTION('',(-0.7071067811865475,0.7071067811865475,0));
#220=FACE_SURFACE('',(#225),#221,.T.);
#221=PLANE('',#222);
#222=AXIS2_PLACEMENT_3D('',#40,#223,#224);
#223=DIRECTION('',(0,0,1));
#224=DIRECTION('',(0.7071067811865475,-0.7071067811865475,0));
#225=FACE_BOUND('',#226,.T.);
#226=EDGE_LOOP('',(#227,#228,#229));
#227=ORIENTED_EDGE('',*,*,#230,.T.);
#228=ORIENTED_EDGE('',*,*,#231,.T.);
#229=ORIENTED_EDGE('',*,*,#232,.T.);
#230=EDGE_CURVE('',#41,#59,#233,.F.);
#231=EDGE_CURVE('',#59,#51,#234,.T.);
#232=EDGE_CURVE('',#51,#41,#235,.T.);
#233=LINE('',#40,#236);
#234=LINE('',#58,#237);
#235=LINE('',#50,#238);
#236=VECTOR('',#239,1.0);
#237=VECTOR('',#240,1.0);
#238=VECTOR('',#241,1.0);
#239=DIRECTION('',(0.7071067811865475,-0.7071067811865475,0));
#240=DIRECTION('',(1,0,0));
#241=DIRECTION('',(-0.9991473250039724,0.04128707954561869,0));
#242=FACE_SURFACE('',(#247),#243,.T.);
#243=PLANE('',#244);
#244=AXIS2_PLACEMENT_3D('',#60,#245,#246);
#245=DIRECTION('',(0,-1,0));
#246=DIRECTION('',(0,0,-1));
#247=FACE_BOUND('',#248,.T.);
#248=EDGE_LOOP('',(#249,#250,#251));
#249=ORIENTED_EDGE('',*,*,#252,.T.);
#250=ORIENTED_EDGE('',*,*,#253,.T.);
#251=ORIENTED_EDGE('',*,*,#254,.T.);
#252=EDGE_CURVE('',#61,#55,#255,.F.);
#253=EDGE_CURVE('',#55,#49,#256,.T.);
#254=EDGE_CURVE('',#49,#61,#257,.T.);
#255=LINE('',#60,#258);
#256=LINE('',#54,#259);
#257=LINE('',#48,#260);
#258=VECTOR('',#261,1.0);
#259=VECTOR('',#262,1.0);
#260=VECTOR('',#263,1.0);
#261=DIRECTION('',(0,0,-1));
#262=DIRECTION('',(1,0,0));
#263=DIRECTION('',(-0.9996657443593832,0,0.025853424423087495));
#264=FACE_SURFACE('',(#269),#265,.T.);
#265=PLANE('',#266);
#266=AXIS2_PLACEMENT_3D('',#60,#267,#268);
#267=DIRECTION('',(0,-1,0));
#268=DIRECTION('',(0.9996657443593832,0,-0.025853424423087495));
#269=FACE_BOUND('',#270,.T.);
#270=EDGE_LOOP('',(#271,#272,#273));
#271=ORIENTED_EDGE('',*,*,#274,.T.);
#272=ORIENTED_EDGE('',*,*,#275,.T.);
#273=ORIENTED_EDGE('',*,*,#276,.T.);
#274=EDGE_CURVE('',#61,#49,#277,.F.);
#275=EDGE_CURVE('',#49,#47,#278,.T.);
#276=EDGE_CURVE('',#47,#61,#279,.T.);
#277=LINE('',#60,#280);
#278=LINE('',#48,#281);
#279=LINE('',#46,#282);
#280=VECTOR('',#283,1.0);
#281=VECTOR('',#284,1.0);
#282=VECTOR('',#285,1.0);
#283=DIRECTION('',(0.9996657443593832,0,-0.025853424423087495));
#284=DIRECTION('',(0,0,1));
#285=DIRECTION('',(-1,0,0));
#286=FACE_SURFACE('',(#291),#287,.T.);
#287=PLANE('',#288);
#288=AXIS2_PLACEMENT_3D('',#52,#289,#290);
#289=DIRECTION('',(0,1,0));
#290=DIRECTION('',(0,0,-1));
#291=FACE_BOUND('',#292,.T.);
#292=EDGE_LOOP('',(#293,#294,#295));
#293=ORIENTED_EDGE('',*,*,#296,.T.);
#294=ORIENTED_EDGE('',*,*,#297,.T.);
#295=ORIENTED_EDGE('',*,*,#298,.T.);
#296=EDGE_CURVE('',#53,#51,#299,.F.);
#297=EDGE_CURVE('',#51,#59,#300,.T.);
#298=EDGE_CURVE('',#59,#53,#301,.T.);
#299=LINE('',#52,#302);
#300=LINE('',#50,#303);
#301=LINE('',#58,#304);
#302=VECTOR('',#305,1.0);
#303=VECTOR('',#306,1.0);
#304=VECTOR('',#307,1.0);
#305=DIRECTION('',(0,0,-1));
#306=DIRECTION('',(-1,0,0));
#307=DIRECTION('',(0.9996657443593832,0,0.025853424423087495));
#308=FACE_SURFACE('',(#313),#309,.T.);
#309=PLANE('',#310);
#310=AXIS2_PLACEMENT_3D('',#52,#311,#312);
#311=DIRECTION('',(0,1,0));
#312=DIRECTION('',(-0.9996657443593832,0,-0.025853424423087495));
#313=FACE_BOUND('',#314,.T.);
#314=EDGE_LOOP('',(#315,#316,#317));
#315=ORIENTED_EDGE('',*,*,#318,.T.);
#316=ORIENTED_EDGE('',*,*,#319,.T.);
#317=ORIENTED_EDGE('',*,*,#320,.T.);
#318=EDGE_CURVE('',#53,#59,#321,.F.);
#319=EDGE_CURVE('',#59,#63,#322,.T.);
#320=EDGE_CURVE('',#63,#53,#323,.T.);
#321=LINE('',#52,#324);
#322=LINE('',#58,#325);
#323=LINE('',#62,#326);
#324=VECTOR('',#327,1.0);
#325=VECTOR('',#328,1.0);
#326=VECTOR('',#329,1.0);
#327=DIRECTION('',(-0.9996657443593832,0,-0.025853424423087495));
#328=DIRECTION('',(0,0,1));
#329=DIRECTION('',(1,0,0));
#330=FACE_SURFACE('',(#335),#331,.T.);
#331=PLANE('',#332);
#332=AXIS2_PLACEMENT_3D('',#34,#333,#334);
#333=DIRECTION('',(0,0,1));
#334=DIRECTION('',(-1,0,0));
#335=FACE_BOUND('',#336,.T.);
#336=EDGE_LOOP('',(#337,#338,#339));
#337=ORIENTED_EDGE('',*,*,#340,.T.);
#338=ORIENTED_EDGE('',*,*,#341,.T.);
#339=ORIENTED_EDGE('',*,*,#342,.T.);
#340=EDGE_CURVE('',#35,#41,#343,.F.);
#341=EDGE_CURVE('',#41,#51,#344,.T.);
#342=EDGE_CURVE('',#51,#35,#345,.T.);
#343=LINE('',#34,#346);
#344=LINE('',#40,#347);
#345=LINE('',#50,#348);
#346=VECTOR('',#349,1.0);
#347=VECTOR('',#350,1.0);
#348=VECTOR('',#351,1.0);
#349=DIRECTION('',(-1,0,0));
#350=DIRECTION('',(0.9991473250039724,-0.04128707954561869,0));
#351=DIRECTION('',(0.7071067811865475,0.7071067811865475,0));
#352=FACE_SURFACE('',(#357),#353,.T.);
#353=PLANE('',#354);
#354=AXIS2_PLACEMENT_3D('',#34,#355,#356);
#355=DIRECTION('',(0,0,1));
#356=DIRECTION('',(-0.7071067811865475,-0.7071067811865475,0));
#357=FACE_BOUND('',#358,.T.);
#358=EDGE_LOOP('',(#359,#360,#361));
#359=ORIENTED_EDGE('',*,*,#362,.T.);
#360=ORIENTED_EDGE('',*,*,#363,.T.);
#361=ORIENTED_EDGE('',*,*,#364,.T.);
#362=EDGE_CURVE('',#35,#51,#365,.F.);
#363=EDGE_CURVE('',#51,#49,#366,.T.);
#364=EDGE_CURVE('',#49,#35,#367,.T.);
#365=LINE('',#34,#368);
#366=LINE('',#50,#369);
#367=LINE('',#48,#370);
#368=VECTOR('',#371,1.0);
#369=VECTOR('',#372,1.0);
#370=VECTOR('',#373,1.0);
#371=DIRECTION('',(-0.7071067811865475,-0.7071067811865475,0));
#372=DIRECTION('',(0,-1,0));
#373=DIRECTION('',(0.019916367519540817,0.9998016494809491,0));
#374=FACE_SURFACE('',(#379),#375,.T.);
#375=PLANE('',#376);
#376=AXIS2_PLACEMENT_3D('',#34,#377,#378);
#377=DIRECTION('',(0,0,1));
#378=DIRECTION('',(-0.019916367519540817,-0.9998016494809491,0));
#379=FACE_BOUND('',#380,.T.);
#380=EDGE_LOOP('',(#381,#382,#383));
#381=ORIENTED_EDGE('',*,*,#384,.T.);
#382=ORIENTED_EDGE('',*,*,#385,.T.);
#383=ORIENTED_EDGE('',*,*,#386,.T.);
#384=EDGE_CURVE('',#35,#49,#387,.F.);
#385=EDGE_CURVE('',#49,#57,#388,.T.);
#386=EDGE_CURVE('',#57,#35,#389,.T.);
#387=LINE('',#34,#390);
#388=LINE('',#48,#391);
#389=LINE('',#56,#392);
#390=VECTOR('',#393,1.0);
#391=VECTOR('',#394,1.0);
#392=VECTOR('',#395,1.0);
#393=DIRECTION('',(-0.019916367519540817,-0.9998016494809491,0));
#394=DIRECTION('',(0.7071067811865475,-0.7071067811865475,0));
#395=DIRECTION('',(0,1,0));
#396=FACE_SURFACE('',(#401),#397,.T.);
#397=PLANE('',#398);
#398=AXIS2_PLACEMENT_3D('',#56,#399,#400);
#399=DIRECTION('',(0,0,1));
#400=DIRECTION('',(-0.9991473250039724,0.04128707954561869,0));
#401=FACE_BOUND('',#402,.T.);
#402=EDGE_LOOP('',(#403,#404,#405));
#403=ORIENTED_EDGE('',*,*,#406,.T.);
#404=ORIENTED_EDGE('',*,*,#407,.T.);
#405=ORIENTED_EDGE('',*,*,#408,.T.);
#406=EDGE_CURVE('',#57,#55,#409,.F.);
#407=EDGE_CURVE('',#55,#45,#410,.T.);
#408=EDGE_CURVE('',#45,#57,#411,.T.);
#409=LINE('',#56,#412);
#410=LINE('',#54,#413);
#411=LINE('',#44,#414);
#412=VECTOR('',#415,1.0);
#413=VECTOR('',#416,1.0);
#414=VECTOR('',#417,1.0);
#415=DIRECTION('',(-0.9991473250039724,0.04128707954561869,0));
#416=DIRECTION('',(-0.7071067811865475,-0.7071067811865475,0));
#417=DIRECTION('',(1,0,0));
#418=FACE_SURFACE('',(#423),#419,.T.);
#419=PLANE('',#420);
#420=AXIS2_PLACEMENT_3D('',#40,#421,#422);
#421=DIRECTION('',(0,0,1));
#422=DIRECTION('',(0,-1,0));
#423=FACE_BOUND('',#424,.T.);
#424=EDGE_LOOP('',(#425,#426,#427));
#425=ORIENTED_EDGE('',*,*,#428,.T.);
#426=ORIENTED_EDGE('',*,*,#429,.T.);
#427=ORIENTED_EDGE('',*,*,#430,.T.);
#428=EDGE_CURVE('',#41,#45,#431,.F.);
#429=EDGE_CURVE('',#45,#55,#432,.T.);
#430=EDGE_CURVE('',#55,#41,#433,.T.);
#431=LINE('',#40,#434);
#432=LINE('',#44,#435);
#433=LINE('',#54,#436);
#434=VECTOR('',#437,1.0);
#435=VECTOR('',#438,1.0);
#436=VECTOR('',#439,1.0);
#437=DIRECTION('',(0,-1,0));
#438=DIRECTION('',(0.7071067811865475,0.7071067811865475,0));
#439=DIRECTION('',(-0.019916367519540817,0.9998016494809491,0));
#440=FACE_SURFACE('',(#445),#441,.T.);
#441=PLANE('',#442);
#442=AXIS2_PLACEMENT_3D('',#40,#443,#444);
#443=DIRECTION('',(0,0,1));
#444=DIRECTION('',(0.019916367519540817,-0.9998016494809491,0));
#445=FACE_BOUND('',#446,.T.);
#446=EDGE_LOOP('',(#447,#448,#449));
#447=ORIENTED_EDGE('',*,*,#450,.T.);
#448=ORIENTED_EDGE('',*,*,#451,.T.);
#449=ORIENTED_EDGE('',*,*,#452,.T.);
#450=EDGE_CURVE('',#41,#55,#453,.F.);
#451=EDGE_CURVE('',#55,#59,#454,.T.);
#452=EDGE_CURVE('',#59,#41,#455,.T.);
#453=LINE('',#40,#456);
#454=LINE('',#54,#457);
#455=LINE('',#58,#458);
#456=VECTOR('',#459,1.0);
#457=VECTOR('',#460,1.0);
#458=VECTOR('',#461,1.0);
#459=DIRECTION('',(0.019916367519540817,-0.9998016494809491,0));
#460=DIRECTION('',(0,1,0));
#461=DIRECTION('',(-0.7071067811865475,0.7071067811865475,0));
#462=FACE_SURFACE('',(#467),#463,.T.);
#463=PLANE('',#464);
#464=AXIS2_PLACEMENT_3D('',#64,#465,#466);
#465=DIRECTION('',(0,0,-1));
#466=DIRECTION('',(-1,0,0));
#467=FACE_BOUND('',#468,.T.);
#468=EDGE_LOOP('',(#469,#470,#471));
#469=ORIENTED_EDGE('',*,*,#472,.T.);
#470=ORIENTED_EDGE('',*,*,#473,.T.);
#471=ORIENTED_EDGE('',*,*,#474,.T.);
#472=EDGE_CURVE('',#65,#43,#475,.F.);
#473=EDGE_CURVE('',#43,#39,#476,.T.);
#474=EDGE_CURVE('',#39,#65,#477,.T.);
#475=LINE('',#64,#478);
#476=LINE('',#42,#479);
#477=LINE('',#38,#480);
#478=VECTOR('',#481,1.0);
#479=VECTOR('',#482,1.0);
#480=VECTOR('',#483,1.0);
#481=DIRECTION('',(-1,0,0));
#482=DIRECTION('',(0,1,0));
#483=DIRECTION('',(0.4415972224923814,-0.8972134044289655,0));
#484=FACE_SURFACE('',(#489),#485,.T.);
#485=PLANE('',#486);
#486=AXIS2_PLACEMENT_3D('',#64,#487,#488);
#487=DIRECTION('',(0,0,-1));
#488=DIRECTION('',(-0.4415972224923814,0.8972134044289655,0));
#489=FACE_BOUND('',#490,.T.);
#490=EDGE_LOOP('',(#491,#492,#493));
#491=ORIENTED_EDGE('',*,*,#494,.T.);
#492=ORIENTED_EDGE('',*,*,#495,.T.);
#493=ORIENTED_EDGE('',*,*,#496,.T.);
#494=EDGE_CURVE('',#65,#39,#497,.F.);
#495=EDGE_CURVE('',#39,#37,#498,.T.);
#496=EDGE_CURVE('',#37,#65,#499,.T.);
#497=LINE('',#64,#500);
#498=LINE('',#38,#501);
#499=LINE('',#36,#502);
#500=VECTOR('',#503,1.0);
#501=VECTOR('',#504,1.0);
#502=VECTOR('',#505,1.0);
#503=DIRECTION('',(-0.4415972224923814,0.8972134044289655,0));
#504=DIRECTION('',(1,0,0));
#505=DIRECTION('',(0,-1,0));
#506=FACE_SURFACE('',(#511),#507,.T.);
#507=PLANE('',#508);
#508=AXIS2_PLACEMENT_3D('',#44,#509,#510);
#509=DIRECTION('',(0,-1,0));
#510=DIRECTION('',(0,0,-1));
#511=FACE_BOUND('',#512,.T.);
#512=EDGE_LOOP('',(#513,#514,#515));
#513=ORIENTED_EDGE('',*,*,#516,.T.);
#514=ORIENTED_EDGE('',*,*,#517,.T.);
#515=ORIENTED_EDGE('',*,*,#518,.T.);
#516=EDGE_CURVE('',#45,#43,#519,.F.);
#517=EDGE_CURVE('',#43,#65,#520,.T.);
#518=EDGE_CURVE('',#65,#45,#521,.T.);
#519=LINE('',#44,#522);
#520=LINE('',#42,#523);
#521=LINE('',#64,#524);
#522=VECTOR('',#525,1.0);
#523=VECTOR('',#526,1.0);
#524=VECTOR('',#527,1.0);
#525=DIRECTION('',(0,0,-1));
#526=DIRECTION('',(1,0,0));
#527=DIRECTION('',(-0.9997166737441362,0,0.0238027779462888));
#528=FACE_SURFACE('',(#533),#529,.T.);
#529=PLANE('',#530);
#530=AXIS2_PLACEMENT_3D('',#44,#531,#532);
#531=DIRECTION('',(0,-1,0));
#532=DIRECTION('',(0.9997166737441362,0,-0.0238027779462888));
#533=FACE_BOUND('',#534,.T.);
#534=EDGE_LOOP('',(#535,#536,#537));
#535=ORIENTED_EDGE('',*,*,#538,.T.);
#536=ORIENTED_EDGE('',*,*,#539,.T.);
#537=ORIENTED_EDGE('',*,*,#540,.T.);
#538=EDGE_CURVE('',#45,#65,#541,.F.);
#539=EDGE_CURVE('',#65,#57,#542,.T.);
#540=EDGE_CURVE('',#57,#45,#543,.T.);
#541=LINE('',#44,#544);
#542=LINE('',#64,#545);
#543=LINE('',#56,#546);
#544=VECTOR('',#547,1.0);
#545=VECTOR('',#548,1.0);
#546=VECTOR('',#549,1.0);
#547=DIRECTION('',(0.9997166737441362,0,-0.0238027779462888));
#548=DIRECTION('',(0,0,1));
#549=DIRECTION('',(-1,0,0));
#550=FACE_SURFACE('',(#555),#551,.T.);
#551=PLANE('',#552);
#552=AXIS2_PLACEMENT_3D('',#62,#553,#554);
#553=DIRECTION('',(-1,0,-0));
#554=DIRECTION('',(0,0,-1));
#555=FACE_BOUND('',#556,.T.);
#556=EDGE_LOOP('',(#557,#558,#559));
#557=ORIENTED_EDGE('',*,*,#560,.T.);
#558=ORIENTED_EDGE('',*,*,#561,.T.);
#559=ORIENTED_EDGE('',*,*,#562,.T.);
#560=EDGE_CURVE('',#63,#59,#563,.F.);
#561=EDGE_CURVE('',#59,#55,#564,.T.);
#562=EDGE_CURVE('',#55,#63,#565,.T.);
#563=LINE('',#62,#566);
#564=LINE('',#58,#567);
#565=LINE('',#54,#568);
#566=VECTOR('',#569,1.0);
#567=VECTOR('',#570,1.0);
#568=VECTOR('',#571,1.0);
#569=DIRECTION('',(0,0,-1));
#570=DIRECTION('',(0,-1,0));
#571=DIRECTION('',(0,0.9999256477934956,0.012194215216993848));
#572=FACE_SURFACE('',(#577),#573,.T.);
#573=PLANE('',#574);
#574=AXIS2_PLACEMENT_3D('',#62,#575,#576);
#575=DIRECTION('',(-1,-0,0));
#576=DIRECTION('',(0,-0.9999256477934956,-0.012194215216993848));
#577=FACE_BOUND('',#578,.T.);
#578=EDGE_LOOP('',(#579,#580,#581));
#579=ORIENTED_EDGE('',*,*,#582,.T.);
#580=ORIENTED_EDGE('',*,*,#583,.T.);
#581=ORIENTED_EDGE('',*,*,#584,.T.);
#582=EDGE_CURVE('',#63,#55,#585,.F.);
#583=EDGE_CURVE('',#55,#61,#586,.T.);
#584=EDGE_CURVE('',#61,#63,#587,.T.);
#585=LINE('',#62,#588);
#586=LINE('',#54,#589);
#587=LINE('',#60,#590);
#588=VECTOR('',#591,1.0);
#589=VECTOR('',#592,1.0);
#590=VECTOR('',#593,1.0);
#591=DIRECTION('',(0,-0.9999256477934956,-0.012194215216993848));
#592=DIRECTION('',(0,0,1));
#593=DIRECTION('',(0,1,0));
#594=FACE_SURFACE('',(#599),#595,.T.);
#595=PLANE('',#596);
#596=AXIS2_PLACEMENT_3D('',#52,#597,#598);
#597=DIRECTION('',(0,0,1));
#598=DIRECTION('',(-1,0,0));
#599=FACE_BOUND('',#600,.T.);
#600=EDGE_LOOP('',(#601,#602,#603));
#601=ORIENTED_EDGE('',*,*,#604,.T.);
#602=ORIENTED_EDGE('',*,*,#605,.T.);
#603=ORIENTED_EDGE('',*,*,#606,.T.);
#604=EDGE_CURVE('',#53,#63,#607,.F.);
#605=EDGE_CURVE('',#63,#61,#608,.T.);
#606=EDGE_CURVE('',#61,#53,#609,.T.);
#607=LINE('',#52,#610);
#608=LINE('',#62,#611);
#609=LINE('',#60,#612);
#610=VECTOR('',#613,1.0);
#611=VECTOR('',#614,1.0);
#612=VECTOR('',#615,1.0);
#613=DIRECTION('',(-1,0,0));
#614=DIRECTION('',(0,-1,0));
#615=DIRECTION('',(0.4265051786176344,0.9044851201718799,0));
#616=FACE_SURFACE('',(#621),#617,.T.);
#617=PLANE('',#618);
#618=AXIS2_PLACEMENT_3D('',#52,#619,#620);
#619=DIRECTION('',(0,0,1));
#620=DIRECTION('',(-0.4265051786176344,-0.9044851201718799,0));
#621=FACE_BOUND('',#622,.T.);
#622=EDGE_LOOP('',(#623,#624,#625));
#623=ORIENTED_EDGE('',*,*,#626,.T.);
#624=ORIENTED_EDGE('',*,*,#627,.T.);
#625=ORIENTED_EDGE('',*,*,#628,.T.);
#626=EDGE_CURVE('',#53,#61,#629,.F.);
#627=EDGE_CURVE('',#61,#47,#630,.T.);
#628=EDGE_CURVE('',#47,#53,#631,.T.);
#629=LINE('',#52,#632);
#630=LINE('',#60,#633);
#631=LINE('',#46,#634);
#632=VECTOR('',#635,1.0);
#633=VECTOR('',#636,1.0);
#634=VECTOR('',#637,1.0);
#635=DIRECTION('',(-0.4265051786176344,-0.9044851201718799,0));
#636=DIRECTION('',(1,0,0));
#637=DIRECTION('',(0,1,0));
#638=FACE_SURFACE('',(#643),#639,.T.);
#639=PLANE('',#640);
#640=AXIS2_PLACEMENT_3D('',#56,#641,#642);
#641=DIRECTION('',(1,0,0));
#642=DIRECTION('',(0,0,-1));
#643=FACE_BOUND('',#644,.T.);
#644=EDGE_LOOP('',(#645,#646,#647));
#645=ORIENTED_EDGE('',*,*,#648,.T.);
#646=ORIENTED_EDGE('',*,*,#649,.T.);
#647=ORIENTED_EDGE('',*,*,#650,.T.);
#648=EDGE_CURVE('',#57,#65,#651,.F.);
#649=EDGE_CURVE('',#65,#37,#652,.T.);
#650=EDGE_CURVE('',#37,#57,#653,.T.);
#651=LINE('',#56,#654);
#652=LINE('',#64,#655);
#653=LINE('',#36,#656);
#654=VECTOR('',#657,1.0);
#655=VECTOR('',#658,1.0);
#656=VECTOR('',#659,1.0);
#657=DIRECTION('',(0,0,-1));
#658=DIRECTION('',(0,1,0));
#659=DIRECTION('',(0,-0.9999313425206403,0.011717945420163677));
#660=FACE_SURFACE('',(#665),#661,.T.);
#661=PLANE('',#662);
#662=AXIS2_PLACEMENT_3D('',#56,#663,#664);
#663=DIRECTION('',(1,-0,0));
#664=DIRECTION('',(0,0.9999313425206403,-0.011717945420163677));
#665=FACE_BOUND('',#666,.T.);
#666=EDGE_LOOP('',(#667,#668,#669));
#667=ORIENTED_EDGE('',*,*,#670,.T.);
#668=ORIENTED_EDGE('',*,*,#671,.T.);
#669=ORIENTED_EDGE('',*,*,#672,.T.);
#670=EDGE_CURVE('',#57,#37,#673,.F.);
#671=EDGE_CURVE('',#37,#35,#674,.T.);
#672=EDGE_CURVE('',#35,#57,#675,.T.);
#673=LINE('',#56,#676);
#674=LINE('',#36,#677);
#675=LINE('',#34,#678);
#676=VECTOR('',#679,1.0);
#677=VECTOR('',#680,1.0);
#678=VECTOR('',#681,1.0);
#679=DIRECTION('',(0,0.9999313425206403,-0.011717945420163677));
#680=DIRECTION('',(0,0,1));
#681=DIRECTION('',(0,-1,0));
ENDSEC;
END-ISO-10303-21;
